<?xml version="1.0" encoding="utf-8"?>
<!-- Generator: Adobe Adobe Illustrator 29.1.0, SVG Export Plug-In . SVG Version: 6.00 Build 0)  -->
<svg version="1.1" id="Layer_1" xmlns="http://www.w3.org/2000/svg" xmlns:xlink="http://www.w3.org/1999/xlink" x="0px" y="0px"
	 width="874.28px" height="337.04px" viewBox="0 0 874.28 337.04" style="enable-background:new 0 0 874.28 337.04;"
	 xml:space="preserve">
<g>
	<path d="M412.8,112.38c-0.8-18.2-5.7-35.3-14.5-50.1c-17.2-28.8-47.8-46.5-85.9-50c-7.1-0.6-14.2-0.8-21.4-0.5
		c-32.2,1.5-65.2,12.4-95.1,30c26.5-13.5,54.8-21.9,82.6-23.2c38.9-1.8,71.2,10.6,91.2,34.5c12.8,15.3,19.7,34.1,20.7,55.1
		c0.7,14.7-1.6,30.6-6.9,47.1c-12.7,39.4-41.2,76-77,103.2c-35.7,27.2-78.7,45-120.1,46.8c-15.4,0.7-29.8-0.9-42.7-4.4
		c13.1,6.5,28.1,10.6,44.4,12.1c7.1,0.7,14.3,0.8,21.5,0.5c76.8-3.5,158.7-60.5,190.6-135.6c9.5-22.3,13.7-44.7,12.8-65.6
		L412.8,112.38z"/>
	<polygon points="81.8,254.68 97.2,254.68 118.9,198.98 103.4,198.98 	"/>
	<polygon points="226,210.38 230.4,198.98 195.2,198.98 173.6,254.68 209.2,254.68 213.6,243.28 193.5,243.28 197.7,232.58 
		217.4,232.58 221.4,222.28 201.6,222.28 206.2,210.38 	"/>
	<polygon points="167.1,222.28 147.4,222.28 152,210.38 171.8,210.38 176.2,198.98 141,198.98 119.4,254.68 134.8,254.68 
		143.4,232.58 163.1,232.58 	"/>
	<path d="M245.2,132.98L245.2,132.98l31.4-73.9h-34l-32.5,77.6l0,0c-0.9,2.1-1.3,4.5-1.3,7c0,4.4,1.4,9,4.1,12.8l0,0
		c5.6,7.8,15.9,12,28,12h29.7l-33.6,86.3h32.6l33.6-86.3h35.2l9.2-28h-33.5l14.1-36.4h-32.5l-14.1,36.4H256c-5.3,0-8-1.2-9.3-2.3
		c-1.3-1.1-1.5-2.4-1.5-3.5v-1.3c0.1,0,0.2-0.3,0.2-0.3L245.2,132.98z"/>
	<path d="M189.7,178.98l12.4-27.8h-96.2c-1.7,0-2.5-0.5-3-1s-0.8-1.3-0.8-2.6c0-2.7,1.7-6.8,4.5-9.9c2.8-3.2,6.6-5.5,10.4-5.5h48.4
		c8.4,0,16.6-0.7,25.6-7c9.1-6.3,16.3-14.9,19.7-23.7l0,0l3.7-9.5l0,0c1.5-4,2.3-7.9,2.3-11.6c0-5.9-2.1-11.3-6.4-15.2
		c-4.4-3.8-10.8-6-19.2-6H118l-12.8,27.1h69.7c4.5,0,7.2,0.6,8.4,1.2c0.6,0.3,0.9,0.6,1,0.8l0.2,0.9c0,0.7-0.4,2-0.9,3.3
		c-0.6,1.4-1.4,2.9-1.9,4.4l0,0c-1.3,3.3-3.4,5.2-6.5,6.6c-3.1,1.3-7.3,1.9-12,1.9h-42.8c-8.9,0-18.6,3.5-27.5,9.6l0,0
		c-9.2,6.4-16.4,14.9-19.8,23.7l0,0l-3.7,9.6c-2,4.9-2.9,9.1-2.9,12.8c0,6.5,3.1,11.3,7.8,14.1c4.7,2.8,10.7,3.9,17.2,3.9h98.1
		L189.7,178.98z"/>
	<polygon points="67.5,198.98 52,198.98 30.4,254.68 65.3,254.68 69.7,243.28 50.3,243.28 	"/>
	<path d="M341,276.68h-2.2l-3.3,8.5h-1.9l3.3-8.5H334l0.7-1.7h6.9l-0.7,1.7H341z"/>
	<path d="M347.6,285.18h-1.9l2.4-6l-2.8,3.7H344l-0.5-3.8l-2.7,6h-1.9l3.9-10.1h1.9l0.7,5.1l3.8-5.1h2.4l-4,10.1V285.18z"/>
</g>
<g>
	<path d="M622.67,38.54c15.86-8.95,32.35-15.86,49.84-20.55c17.91-4.89,36.01-7.13,54.32-6.1c27.47,1.42,52.49,9.36,73.45,27.88
		c17.7,15.67,27.88,35.4,31.54,58.59c4.48,28.28-0.61,55.34-12.21,81.39c-16.27,37.02-41.91,66.54-74.47,90.33
		c-25.43,18.72-53.31,32.15-84.23,39.07c-27.06,6.1-54.13,6.51-80.98-2.03c-4.27-1.42-8.55-3.06-12.61-4.68v-0.61
		c3.66,0.61,7.12,1.42,10.78,2.03c13.43,2.24,27.06,2.24,40.49,0.41c49.44-6.51,91.15-28.68,127.37-62.06
		c19.94-18.1,36.22-39.07,48.22-63.28c8.34-16.89,14.24-34.59,16.07-53.31c2.24-22.39-1.01-43.74-13.23-63.07
		c-12.41-19.74-30.32-32.15-52.49-38.86c-15.47-4.68-31.54-6.1-47.61-5.09c-25.84,1.42-50.25,8.75-73.45,19.53
		c-0.41,0-0.61,0.2-1.01,0.41L622.67,38.54L622.67,38.54z"/>
	<path d="M657.46,264.37c12.82-32.76,25.43-65.11,38.25-97.87h-32.76c-6.51,0-12.82-1.01-18.72-4.27
		c-7.52-4.27-11.81-10.38-11.4-19.33c0-1.83,0.41-3.66,1.22-5.28c10.17-24.62,20.55-49.44,30.92-74.06
		c0.41-0.82,1.42-1.83,2.24-1.83h26.25c0.41,0,0.61,0,1.42,0.2c-0.41,1.01-0.82,2.03-1.22,2.85c-9.36,22.18-18.72,44.15-28.08,66.33
		c-2.24,5.28-0.41,9.36,5.09,10.99c2.24,0.61,4.68,1.01,7.12,1.01h25.02c1.63,0,2.44-0.61,3.06-2.03
		c4.07-10.78,8.34-21.57,12.41-32.56c0.61-1.63,1.42-2.03,3.06-2.03h25.43c-4.68,12.21-9.36,24.22-14.04,36.42h33.77
		c-0.41,1.01-0.61,1.83-0.82,2.65c-2.03,6.1-4.07,12.41-6.1,18.72c-0.61,1.63-1.42,2.24-3.25,2.24h-29.91
		c-2.24,0-3.25,0.82-3.86,2.85c-12,31.13-24.22,62.06-36.22,92.98c-0.61,1.83-1.63,2.44-3.46,2.24h-25.23l-0.2-0.2L657.46,264.37z"
		/>
	<path d="M620.22,153.7c-3.06,6.72-5.9,12.82-8.34,18.92c-1.22,3.46-3.06,4.27-6.72,4.27h-89.52c-4.07,0-8.14-0.2-12.21-1.01
		c-10.58-2.24-15.26-9.36-12.41-19.74c3.06-10.99,6.51-21.77,14.44-30.32c8.14-8.75,17.7-14.85,29.5-17.3
		c2.24-0.41,4.48-0.61,6.72-0.61h43.74c3.66,0,7.52-0.82,11.19-1.63c4.27-1.01,7.33-4.07,8.95-8.34c0.82-2.24,1.83-4.27,2.65-6.31
		c1.01-3.06,0-5.09-2.85-5.9c-3.06-0.82-6.31-1.22-9.36-1.22h-65.31c0.41-0.82,0.41-1.42,0.82-2.03c2.85-6.1,5.9-12.21,8.75-18.31
		c0.61-1.42,1.42-2.03,3.25-2.03h69.79c4.48,0,8.95,0.61,13.23,2.44c7.52,3.46,11.6,10.99,9.76,19.94
		c-3.46,16.27-10.58,30.52-25.23,40.08c-7.33,4.68-15.26,6.31-23.6,6.31h-46.18c-9.57,0-17.3,6.1-19.53,15.47
		c-1.22,5.28,1.22,8.14,6.72,8.14h91.97l-0.2-0.82L620.22,153.7z"/>
	<path d="M568.14,193.17c-1.42,3.25-3.06,6.51-4.48,9.57c-0.61,1.22-1.22,2.24-1.63,3.46c-1.01,4.48-3.86,5.09-7.93,5.09
		c-10.78-0.2-21.77,0-32.56,0c-8.34,0-14.85,3.25-19.74,9.76c-4.27,5.69-7.93,11.81-9.36,18.72c-1.01,4.89,0.61,7.12,5.49,7.33
		h22.39c1.42,0,2.24-0.41,2.85-1.83c1.22-3.06,2.85-6.1,4.27-9.57H507.5c0,0,0.2-1.22,0.41-1.63c1.63-3.66,3.46-7.52,5.09-11.19
		c0.41-0.61,1.22-1.42,1.83-1.42h39.07c0,0,0.2,0,0.61,0.2c-0.2,0.61-0.41,1.42-0.82,2.03c-5.9,13.02-12,25.84-17.91,38.86
		c-0.61,1.63-1.42,2.24-3.25,2.24H483.7c-2.85,0-5.9-0.82-8.75-1.83c-4.89-1.63-7.33-5.49-7.73-10.58
		c-0.41-5.09,0.61-9.97,2.44-14.65c4.48-12.61,10.99-24.01,20.75-33.16c7.93-7.33,17.5-11.19,28.28-11.19
		c15.86,0,31.94-0.2,47.82-0.41h1.01l0.61,0.2L568.14,193.17z"/>
	<path d="M619.81,191.54c4.89,1.01,9.76,1.42,14.24,3.06c13.43,4.27,19.53,16.48,15.86,30.11c-2.44,9.36-7.93,16.68-15.06,22.99
		c-12.82,11.19-27.47,17.91-44.76,18.31c-4.68,0-9.36-0.61-13.83-1.83c-15.26-4.48-21.77-18.31-16.27-33.37
		c3.66-9.76,10.17-17.3,18.1-23.6c12-9.36,27.47-15.06,41.31-15.06v-0.61L619.81,191.54L619.81,191.54z M580.55,252.99
		c0,0,1.42-0.41,2.44-0.82c15.67-6.31,31.13-12.61,46.8-18.92c0.82-0.2,1.42-0.61,2.24-1.22c2.03-1.63,2.03-3.25,0-4.68
		c-8.95-6.1-17.7-12-26.65-17.91c-3.46-2.44-6.1-1.83-8.14,2.24c-3.06,6.1-6.1,12.41-8.95,18.72c-3.06,6.51-6.31,12.82-9.36,19.33
		c-1.01,2.24-0.41,3.46,2.03,3.46l-0.41-0.2V252.99z"/>
	<path d="M765.7,280.05c2.44-1.22,2.44-4.89,5.9-4.48c-0.82,4.48-3.25,9.57-5.09,9.76c0.41-1.42,0.82-2.65,1.42-4.07h-0.61
		c-0.61,0.61-1.42,1.22-2.03,1.83c-0.41-0.82-0.82-1.83-1.42-3.06c-0.61,1.01-1.01,2.24-1.63,3.06c-0.62,0.82-0.41,2.65-2.65,2.03
		c1.22-3.06,2.24-6.1,3.46-8.95c0-0.41,0.82-0.61,1.22-0.61c0.41,0,0.82,0.61,1.01,1.01c0.2,1.01,0.41,2.24,0.61,3.46h-0.2H765.7z"
		/>
	<path d="M754.31,285.14c1.01-2.65,2.03-5.28,3.06-7.93c-1.01,0-1.63-0.2-2.44-0.41v-0.61c2.03-1.63,4.48-0.2,7.12-0.82
		c-0.41,0.82-0.41,1.42-0.61,1.42c-2.85,0-2.85,2.24-3.46,4.07c-0.41,1.22-0.82,2.44-1.42,3.46c-0.2,0.61-1.01,1.01-1.42,1.42
		l-0.61-0.61h-0.2L754.31,285.14z"/>
</g>
</svg>
