<svg xmlns="http://www.w3.org/2000/svg" viewBox="0 0 382.6 302.1"><path d="m382.4,100.7c-.8-18.2-5.7-35.3-14.5-50.1-17.2-28.8-47.8-46.5-85.9-50-7.1-.6-14.2-.8-21.4-.5-32.2,1.5-65.2,12.4-95.1,30,26.5-13.5,54.8-21.9,82.6-23.2,38.9-1.8,71.2,10.6,91.2,34.5,12.8,15.3,19.7,34.1,20.7,55.1.7,14.7-1.6,30.6-6.9,47.1-12.7,39.4-41.2,76-77,103.2-35.7,27.2-78.7,45-120.1,46.8-15.4.7-29.8-.9-42.7-4.4,13.1,6.5,28.1,10.6,44.4,12.1,7.1.7,14.3.8,21.5.5,76.8-3.5,158.7-60.5,190.6-135.6,9.5-22.3,13.7-44.7,12.8-65.6Z"/><polygon points="51.4 243 66.8 243 88.5 187.3 73 187.3 51.4 243"/><polygon points="195.6 198.7 200 187.3 164.8 187.3 143.2 243 178.8 243 183.2 231.6 163.1 231.6 167.3 220.9 187 220.9 191 210.6 171.2 210.6 175.8 198.7 195.6 198.7"/><polygon points="136.7 210.6 117 210.6 121.6 198.7 141.4 198.7 145.8 187.3 110.6 187.3 89 243 104.4 243 113 220.9 132.7 220.9 136.7 210.6"/><path d="m214.8,121.3h0s31.4-73.9,31.4-73.9h-34l-32.5,77.6h0c-.9,2.1-1.3,4.5-1.3,7,0,4.4,1.4,9,4.1,12.8h0c5.6,7.8,15.9,12,28,12h29.7s-33.6,86.3-33.6,86.3h32.6l33.6-86.3h35.2l9.2-28h-33.5s14.1-36.4,14.1-36.4h-32.5l-14.1,36.4h-25.6c-5.3,0-8-1.2-9.3-2.3-1.3-1.1-1.5-2.4-1.5-3.5v-1.3c.1,0,.2-.3.2-.3Z"/><path d="m159.3,167.3l12.4-27.8h-96.2c-1.7,0-2.5-.5-3-1-.5-.5-.8-1.3-.8-2.6,0-2.7,1.7-6.8,4.5-9.9,2.8-3.2,6.6-5.5,10.4-5.5h48.4c8.4,0,16.6-.7,25.6-7,9.1-6.3,16.3-14.9,19.7-23.7h0s3.7-9.5,3.7-9.5h0c1.5-4,2.3-7.9,2.3-11.6,0-5.9-2.1-11.3-6.4-15.2-4.4-3.8-10.8-6-19.2-6h-73.1s-12.8,27.1-12.8,27.1h69.7c4.5,0,7.2.6,8.4,1.2.6.3.9.6,1,.8l.2.9c0,.7-.4,2-.9,3.3-.6,1.4-1.4,2.9-1.9,4.4h0c-1.3,3.3-3.4,5.2-6.5,6.6-3.1,1.3-7.3,1.9-12,1.9h-42.8c-8.9,0-18.6,3.5-27.5,9.6h0c-9.2,6.4-16.4,14.9-19.8,23.7h0s-3.7,9.6-3.7,9.6c-2,4.9-2.9,9.1-2.9,12.8,0,6.5,3.1,11.3,7.8,14.1,4.7,2.8,10.7,3.9,17.2,3.9h98.1Z"/><polygon points="37.1 187.3 21.6 187.3 0 243 34.9 243 39.3 231.6 19.9 231.6 37.1 187.3"/><path d="m310.6,265h-2.2l-3.3,8.5h-1.9l3.3-8.5h-2.9l.7-1.7h6.9l-.7,1.7Z"/><path d="m317.2,273.5h-1.9l2.4-6-2.8,3.7h-1.3l-.5-3.8-2.7,6h-1.9l3.9-10.1h1.9l.7,5.1,3.8-5.1h2.4l-4,10.1Z"/></svg>
