<svg xmlns="http://www.w3.org/2000/svg" id="Layer_1" data-name="Layer 1" viewBox="0 0 314.02 258.89" width="314.02" height="258.89"><title xmlns="http://www.w3.org/1999/xhtml">Brand</title>
  <defs>
    <style>.brand-cls-1 { }</style>
  </defs>
  <path class="brand-cls-1" d="M133.34,23.06c13.6-7.67,27.73-13.6,42.73-17.62C191.42,1.25,206.94-.67,222.64.21c23.55,1.22,45,8.02,62.97,23.9,15.17,13.43,23.9,30.35,27.04,50.23,3.84,24.24-.52,47.44-10.47,69.77-13.95,31.74-35.93,57.04-63.84,77.44-21.8,16.05-45.7,27.56-72.21,33.49-23.2,5.23-46.4,5.58-69.42-1.74-3.66-1.22-7.33-2.62-10.81-4.01v-.52c3.14.52,6.1,1.22,9.24,1.74,11.51,1.92,23.2,1.92,34.71.35,42.38-5.58,78.14-24.59,109.19-53.2,17.09-15.52,31.05-33.49,41.34-54.25,7.15-14.48,12.21-29.65,13.78-45.7,1.92-19.19-.87-37.5-11.34-54.07-10.64-16.92-25.99-27.56-45-33.31-13.26-4.01-27.04-5.23-40.81-4.36-22.15,1.22-43.08,7.5-62.97,16.74-.35,0-.52.17-.87.35h.17Z"/>
  <path class="brand-cls-1" d="M163.16,216.66c10.99-28.08,21.8-55.82,32.79-83.9h-28.08c-5.58,0-10.99-.87-16.05-3.66-6.45-3.66-10.12-8.9-9.77-16.57,0-1.57.35-3.14,1.05-4.53,8.72-21.11,17.62-42.38,26.51-63.49.35-.7,1.22-1.57,1.92-1.57h22.5c.35,0,.52,0,1.22.17-.35.87-.7,1.74-1.05,2.44-8.02,19.01-16.05,37.85-24.07,56.86-1.92,4.53-.35,8.02,4.36,9.42,1.92.52,4.01.87,6.1.87h21.45c1.4,0,2.09-.52,2.62-1.74,3.49-9.24,7.15-18.49,10.64-27.91.52-1.4,1.22-1.74,2.62-1.74h21.8c-4.01,10.47-8.02,20.76-12.04,31.22h28.95c-.35.87-.52,1.57-.7,2.27-1.74,5.23-3.49,10.64-5.23,16.05-.52,1.4-1.22,1.92-2.79,1.92h-25.64c-1.92,0-2.79.7-3.31,2.44-10.29,26.69-20.76,53.2-31.05,79.71-.52,1.57-1.4,2.09-2.97,1.92h-21.63l-.17-.17Z"/>
  <path class="brand-cls-1" d="M131.24,121.78c-2.62,5.76-5.06,10.99-7.15,16.22-1.05,2.97-2.62,3.66-5.76,3.66H41.59c-3.49,0-6.98-.17-10.47-.87-9.07-1.92-13.08-8.02-10.64-16.92,2.62-9.42,5.58-18.66,12.38-25.99,6.98-7.5,15.17-12.73,25.29-14.83,1.92-.35,3.84-.52,5.76-.52h37.5c3.14,0,6.45-.7,9.59-1.4,3.66-.87,6.28-3.49,7.67-7.15.7-1.92,1.57-3.66,2.27-5.41.87-2.62,0-4.36-2.44-5.06-2.62-.7-5.41-1.05-8.02-1.05h-55.99c.35-.7.35-1.22.7-1.74,2.44-5.23,5.06-10.47,7.5-15.7.52-1.22,1.22-1.74,2.79-1.74h59.83c3.84,0,7.67.52,11.34,2.09,6.45,2.97,9.94,9.42,8.37,17.09-2.97,13.95-9.07,26.16-21.63,34.36-6.28,4.01-13.08,5.41-20.23,5.41h-39.59c-8.2,0-14.83,5.23-16.74,13.26-1.05,4.53,1.05,6.98,5.76,6.98h78.84l-.17-.7Z"/>
  <path class="brand-cls-1" d="M86.59,155.62c-1.22,2.79-2.62,5.58-3.84,8.2-.52,1.05-1.05,1.92-1.4,2.97-.87,3.84-3.31,4.36-6.8,4.36-9.24-.17-18.66,0-27.91,0-7.15,0-12.73,2.79-16.92,8.37-3.66,4.88-6.8,10.12-8.02,16.05-.87,4.19.52,6.1,4.71,6.28h19.19c1.22,0,1.92-.35,2.44-1.57,1.05-2.62,2.44-5.23,3.66-8.2h-17.09s.17-1.05.35-1.4c1.4-3.14,2.97-6.45,4.36-9.59.35-.52,1.05-1.22,1.57-1.22h33.49s.17,0,.52.17c-.17.52-.35,1.22-.7,1.74-5.06,11.16-10.29,22.15-15.35,33.31-.52,1.4-1.22,1.92-2.79,1.92H14.2c-2.44,0-5.06-.7-7.5-1.57-4.19-1.4-6.28-4.71-6.63-9.07-.35-4.36.52-8.55,2.09-12.56,3.84-10.81,9.42-20.58,17.79-28.43,6.8-6.28,15-9.59,24.24-9.59,13.6,0,27.38-.17,40.99-.35h.87l.52.17Z"/>
  <path class="brand-cls-1" d="M130.89,154.22c4.19.87,8.37,1.22,12.21,2.62,11.51,3.66,16.74,14.13,13.6,25.81-2.09,8.02-6.8,14.3-12.91,19.71-10.99,9.59-23.55,15.35-38.37,15.7-4.01,0-8.02-.52-11.86-1.57-13.08-3.84-18.66-15.7-13.95-28.61,3.14-8.37,8.72-14.83,15.52-20.23,10.29-8.02,23.55-12.91,35.41-12.91v-.52h.35ZM97.23,206.9s1.22-.35,2.09-.7c13.43-5.41,26.69-10.81,40.12-16.22.7-.17,1.22-.52,1.92-1.05,1.74-1.4,1.74-2.79,0-4.01-7.67-5.23-15.17-10.29-22.85-15.35-2.97-2.09-5.23-1.57-6.98,1.92-2.62,5.23-5.23,10.64-7.67,16.05-2.62,5.58-5.41,10.99-8.02,16.57-.87,1.92-.35,2.97,1.74,2.97l-.35-.17Z"/>
  <path class="brand-cls-1" d="M255.95,230.1c2.09-1.05,2.09-4.19,5.06-3.84-.7,3.84-2.79,8.2-4.36,8.37.35-1.22.7-2.27,1.22-3.49h-.52c-.52.52-1.22,1.05-1.74,1.57-.35-.7-.7-1.57-1.22-2.62-.52.87-.87,1.92-1.4,2.62s-.35,2.27-2.27,1.74c1.05-2.62,1.92-5.23,2.97-7.67,0-.35.7-.52,1.05-.52s.7.52.87.87c.17.87.35,1.92.52,2.97h-.17Z"/>
  <path class="brand-cls-1" d="M246.19,234.46c.87-2.27,1.74-4.53,2.62-6.8-.87,0-1.4-.17-2.09-.35v-.52c1.74-1.4,3.84-.17,6.1-.7-.35.7-.35,1.22-.52,1.22-2.44,0-2.44,1.92-2.97,3.49-.35,1.05-.7,2.09-1.22,2.97-.17.52-.87.87-1.22,1.22l-.52-.52h-.17Z"/>
</svg>
